<svg xmlns="http://www.w3.org/2000/svg" xmlns:xlink="http://www.w3.org/1999/xlink" width="1080" zoomAndPan="magnify" viewBox="0 0 810 809.999993" height="1080" preserveAspectRatio="xMidYMid meet" version="1.0"><defs><clipPath id="6b96ae42c3"><path d="M 67.386719 67.386719 L 742.386719 67.386719 L 742.386719 741 L 67.386719 741 Z M 67.386719 67.386719 " clip-rule="nonzero"/></clipPath><clipPath id="141147fac6"><path d="M 253 192 L 562 192 L 562 742.386719 L 253 742.386719 Z M 253 192 " clip-rule="nonzero"/></clipPath></defs><g clip-path="url(#6b96ae42c3)"><path fill="#ffffff" d="M 742.703125 405.058594 C 742.703125 218.554688 591.535156 67.386719 405.058594 67.386719 C 218.585938 67.386719 67.386719 218.554688 67.386719 405.058594 C 67.386719 563.410156 176.398438 696.300781 323.476562 732.792969 L 323.476562 508.253906 L 253.832031 508.253906 L 253.832031 405.058594 L 323.476562 405.058594 L 323.476562 360.601562 C 323.476562 245.679688 375.480469 192.402344 488.3125 192.402344 C 509.707031 192.402344 546.621094 196.582031 561.710938 200.796875 L 561.710938 294.320312 C 553.742188 293.472656 539.890625 293.046875 522.707031 293.046875 C 467.339844 293.046875 445.941406 314.019531 445.941406 368.539062 L 445.941406 405.03125 L 556.226562 405.03125 L 537.285156 508.222656 L 445.941406 508.222656 L 445.941406 740.214844 C 613.140625 720.03125 742.703125 577.652344 742.703125 405.03125 Z M 742.703125 405.058594 " fill-opacity="1" fill-rule="nonzero"/></g><g clip-path="url(#141147fac6)"><path fill="#ffbfcb" d="M 537.316406 508.222656 L 556.257812 405.03125 L 445.972656 405.03125 L 445.972656 368.539062 C 445.972656 314.019531 467.371094 293.046875 522.738281 293.046875 C 539.921875 293.046875 553.773438 293.472656 561.742188 294.320312 L 561.742188 200.796875 C 546.652344 196.613281 509.738281 192.402344 488.339844 192.402344 C 375.511719 192.402344 323.503906 245.679688 323.503906 360.601562 L 323.503906 405.058594 L 253.863281 405.058594 L 253.863281 508.253906 L 323.503906 508.253906 L 323.503906 732.792969 C 349.628906 739.277344 376.9375 742.730469 405.089844 742.730469 C 418.941406 742.730469 432.578125 741.882812 446.003906 740.246094 L 446.003906 508.253906 L 537.347656 508.253906 Z M 537.316406 508.222656 " fill-opacity="1" fill-rule="nonzero"/></g></svg>