<svg xmlns="http://www.w3.org/2000/svg" xmlns:xlink="http://www.w3.org/1999/xlink" width="1080" zoomAndPan="magnify" viewBox="0 0 810 809.999993" height="1080" preserveAspectRatio="xMidYMid meet" version="1.0"><defs><clipPath id="f367bce3f8"><path d="M 63.859375 72.429688 L 729 72.429688 L 729 737.679688 L 63.859375 737.679688 Z M 63.859375 72.429688 " clip-rule="nonzero"/></clipPath></defs><g clip-path="url(#f367bce3f8)"><path fill="#ffffff" d="M 258.605469 74.714844 C 223.234375 76.378906 199.078125 82.046875 177.960938 90.320312 C 156.09375 98.839844 137.578125 110.246094 119.15625 128.761719 C 100.703125 147.277344 89.363281 165.824219 80.933594 187.722656 C 72.757812 208.902344 67.210938 233.058594 65.644531 268.460938 C 64.078125 303.894531 63.734375 315.203125 63.890625 405.496094 C 64.046875 495.757812 64.453125 507.101562 66.144531 542.566406 C 67.835938 577.9375 73.476562 602.0625 81.75 623.207031 C 90.269531 645.078125 101.675781 663.5625 120.191406 682.015625 C 138.707031 700.46875 157.253906 711.777344 179.152344 720.238281 C 200.300781 728.414062 224.488281 733.992188 259.859375 735.527344 C 295.324219 737.09375 306.632812 737.4375 396.894531 737.25 C 487.1875 737.09375 498.496094 736.683594 533.964844 734.992188 C 569.335938 733.300781 593.457031 727.628906 614.605469 719.390625 C 636.476562 710.839844 654.992188 699.464844 673.414062 680.949219 C 691.835938 662.433594 703.175781 643.886719 711.636719 621.988281 C 719.8125 600.839844 725.390625 576.652344 726.925781 541.3125 C 728.460938 505.847656 728.835938 494.503906 728.679688 404.242188 C 728.523438 313.984375 728.082031 302.671875 726.421875 267.207031 C 724.730469 231.804688 719.089844 207.679688 710.820312 186.53125 C 702.265625 164.664062 690.894531 146.179688 672.378906 127.726562 C 653.863281 109.304688 635.316406 97.933594 613.414062 89.503906 C 592.269531 81.328125 568.082031 75.75 532.710938 74.214844 C 497.246094 72.648438 485.902344 72.304688 395.640625 72.460938 C 305.378906 72.617188 294.070312 73.023438 258.605469 74.714844 M 262.488281 675.65625 C 230.09375 674.246094 212.488281 668.855469 200.738281 664.34375 C 185.199219 658.328125 174.140625 651.125 162.453125 639.5625 C 150.800781 627.9375 143.59375 616.878906 137.515625 601.402344 C 132.972656 589.683594 127.488281 572.109375 125.953125 539.683594 C 124.292969 504.65625 123.917969 494.128906 123.761719 405.371094 C 123.605469 316.644531 123.917969 306.117188 125.453125 271.0625 C 126.832031 238.664062 132.253906 221.058594 136.761719 209.339844 C 142.777344 193.800781 149.953125 182.742188 161.546875 171.054688 C 173.167969 159.402344 184.226562 152.195312 199.738281 146.117188 C 211.453125 141.542969 229.03125 136.089844 261.425781 134.554688 C 296.484375 132.894531 306.980469 132.550781 395.734375 132.363281 C 484.492188 132.175781 495.019531 132.488281 530.078125 134.054688 C 562.472656 135.464844 580.082031 140.824219 591.796875 145.367188 C 607.339844 151.378906 618.429688 158.523438 630.082031 170.148438 C 641.738281 181.769531 648.976562 192.796875 655.023438 208.339844 C 659.597656 220.023438 665.046875 237.632812 666.582031 269.996094 C 668.242188 305.054688 668.617188 315.582031 668.777344 404.304688 C 668.933594 493.0625 668.617188 503.589844 667.082031 538.617188 C 665.675781 571.011719 660.285156 588.652344 655.773438 600.367188 C 649.757812 615.878906 642.585938 626.96875 630.960938 638.621094 C 619.335938 650.246094 608.308594 657.484375 592.769531 663.5625 C 581.082031 668.136719 563.476562 673.585938 531.113281 675.121094 C 496.054688 676.78125 485.558594 677.160156 396.769531 677.316406 C 308.042969 677.472656 297.515625 677.160156 262.457031 675.625 M 533.492188 227.167969 C 533.523438 249.191406 551.445312 267.019531 573.4375 266.957031 C 595.464844 266.925781 613.289062 249.035156 613.257812 227.011719 C 613.226562 204.984375 595.308594 187.160156 573.28125 187.191406 C 551.257812 187.222656 533.429688 205.144531 533.460938 227.136719 M 225.582031 405.183594 C 225.773438 499.457031 302.339844 575.710938 396.582031 575.523438 C 490.851562 575.335938 567.140625 498.796875 566.953125 404.527344 C 566.765625 310.285156 490.195312 233.996094 395.925781 234.152344 C 301.683594 234.34375 225.394531 310.914062 225.582031 405.183594 M 285.453125 405.058594 C 285.359375 343.871094 334.863281 294.152344 396.050781 294.058594 C 457.238281 293.929688 506.957031 343.433594 507.082031 404.652344 C 507.207031 465.839844 457.675781 515.558594 396.488281 515.652344 C 335.300781 515.777344 285.582031 466.246094 285.484375 405.058594 " fill-opacity="1" fill-rule="nonzero"/></g></svg>