<svg xmlns="http://www.w3.org/2000/svg" xmlns:xlink="http://www.w3.org/1999/xlink" width="1080" zoomAndPan="magnify" viewBox="0 0 810 809.999993" height="1080" preserveAspectRatio="xMidYMid meet" version="1.0"><defs><g/><clipPath id="1a1645e151"><path d="M 60.496094 60.496094 L 749.746094 60.496094 L 749.746094 749.746094 L 60.496094 749.746094 Z M 60.496094 60.496094 " clip-rule="nonzero"/></clipPath></defs><g clip-path="url(#1a1645e151)"><path fill="#ffbfcb" d="M 404.917969 60.441406 C 214.972656 60.441406 60.441406 214.972656 60.441406 404.917969 C 60.441406 594.859375 214.972656 749.390625 404.917969 749.390625 C 594.859375 749.390625 749.390625 594.859375 749.390625 404.917969 C 749.390625 214.972656 594.859375 60.441406 404.917969 60.441406 Z M 530.097656 435.367188 L 400.921875 564.546875 C 392.515625 572.953125 381.492188 577.15625 370.46875 577.15625 C 359.445312 577.15625 348.421875 572.953125 340.019531 564.546875 C 323.207031 547.734375 323.207031 520.488281 340.019531 503.644531 L 438.746094 404.917969 L 340.019531 306.191406 C 323.207031 289.378906 323.207031 262.132812 340.019531 245.289062 C 356.828125 228.441406 384.078125 228.476562 400.921875 245.289062 L 530.097656 374.464844 C 546.910156 391.277344 546.910156 418.558594 530.097656 435.367188 Z M 530.097656 435.367188 " fill-opacity="1" fill-rule="nonzero"/></g><g fill="#ffffff" fill-opacity="1"><g transform="translate(362.894517, 60.373461)"><g><path d="M 1.78125 -27.15625 L 1.78125 -30.5625 L 25 -30.5625 L 25 -27.15625 L 15.34375 -27.15625 L 15.34375 0 L 11.484375 0 L 11.484375 -27.15625 Z M 1.78125 -27.15625 "/></g></g><g transform="translate(389.677719, 60.373461)"><g><path d="M 3.09375 0 L 3.09375 -22.640625 L 6.75 -22.640625 L 6.75 0 Z M 4.921875 -26.5 C 4.234375 -26.5 3.640625 -26.738281 3.140625 -27.21875 C 2.640625 -27.695312 2.390625 -28.269531 2.390625 -28.9375 C 2.390625 -29.601562 2.640625 -30.171875 3.140625 -30.640625 C 3.640625 -31.117188 4.234375 -31.359375 4.921875 -31.359375 C 5.617188 -31.359375 6.210938 -31.117188 6.703125 -30.640625 C 7.203125 -30.171875 7.453125 -29.601562 7.453125 -28.9375 C 7.453125 -28.269531 7.203125 -27.695312 6.703125 -27.21875 C 6.210938 -26.738281 5.617188 -26.5 4.921875 -26.5 Z M 4.921875 -26.5 "/></g></g></g><g fill="#ffffff" fill-opacity="1"><g transform="translate(399.6035, 60.373461)"><g><path d="M 12.21875 -22.640625 L 12.21875 -19.53125 L 0.390625 -19.53125 L 0.390625 -22.640625 Z M 3.921875 -28.203125 L 7.5625 -28.203125 L 7.5625 -5.78125 C 7.5625 -4.8125 7.765625 -4.101562 8.171875 -3.65625 C 8.578125 -3.21875 9.257812 -3 10.21875 -3 C 10.457031 -3 10.757812 -3.019531 11.125 -3.0625 C 11.488281 -3.101562 11.820312 -3.140625 12.125 -3.171875 L 12.71875 -0.109375 C 12.332031 0.00390625 11.898438 0.0859375 11.421875 0.140625 C 10.953125 0.191406 10.492188 0.21875 10.046875 0.21875 C 8.085938 0.21875 6.578125 -0.273438 5.515625 -1.265625 C 4.453125 -2.265625 3.921875 -3.675781 3.921875 -5.5 Z M 3.921875 -28.203125 "/></g></g><g transform="translate(413.200179, 60.373461)"><g><path d="M 6.75 -30.5625 L 6.75 0 L 3.09375 0 L 3.09375 -30.5625 Z M 6.75 -30.5625 "/></g></g><g transform="translate(423.043929, 60.373461)"><g><path d="M 12.578125 0.5 C 10.390625 0.5 8.5 0.00390625 6.90625 -0.984375 C 5.320312 -1.972656 4.101562 -3.34375 3.25 -5.09375 C 2.40625 -6.84375 1.984375 -8.867188 1.984375 -11.171875 C 1.984375 -13.484375 2.40625 -15.523438 3.25 -17.296875 C 4.09375 -19.078125 5.28125 -20.46875 6.8125 -21.46875 C 8.351562 -22.46875 10.144531 -22.96875 12.1875 -22.96875 C 13.46875 -22.96875 14.703125 -22.75 15.890625 -22.3125 C 17.078125 -21.882812 18.144531 -21.207031 19.09375 -20.28125 C 20.039062 -19.363281 20.785156 -18.179688 21.328125 -16.734375 C 21.878906 -15.285156 22.15625 -13.554688 22.15625 -11.546875 L 22.15625 -10.125 L 4.34375 -10.125 L 4.34375 -13.203125 L 20.15625 -13.203125 L 18.5 -12.09375 C 18.5 -13.582031 18.253906 -14.898438 17.765625 -16.046875 C 17.285156 -17.203125 16.578125 -18.101562 15.640625 -18.75 C 14.703125 -19.40625 13.550781 -19.734375 12.1875 -19.734375 C 10.832031 -19.734375 9.664062 -19.40625 8.6875 -18.75 C 7.707031 -18.09375 6.957031 -17.21875 6.4375 -16.125 C 5.914062 -15.039062 5.65625 -13.847656 5.65625 -12.546875 L 5.65625 -10.625 C 5.65625 -8.96875 5.9375 -7.550781 6.5 -6.375 C 7.070312 -5.195312 7.878906 -4.300781 8.921875 -3.6875 C 9.972656 -3.070312 11.195312 -2.765625 12.59375 -2.765625 C 13.519531 -2.765625 14.351562 -2.898438 15.09375 -3.171875 C 15.84375 -3.453125 16.484375 -3.859375 17.015625 -4.390625 C 17.554688 -4.921875 17.960938 -5.578125 18.234375 -6.359375 L 21.78125 -5.578125 C 21.4375 -4.390625 20.835938 -3.335938 19.984375 -2.421875 C 19.140625 -1.503906 18.085938 -0.785156 16.828125 -0.265625 C 15.566406 0.242188 14.148438 0.5 12.578125 0.5 Z M 12.578125 0.5 "/></g></g></g></svg>