<svg xmlns="http://www.w3.org/2000/svg" xmlns:xlink="http://www.w3.org/1999/xlink" width="1080" zoomAndPan="magnify" viewBox="0 0 810 809.999993" height="1080" preserveAspectRatio="xMidYMid meet" version="1.0"><defs><clipPath id="e5ec4a4f22"><path d="M 43.75 318.957031 L 194 318.957031 L 194 490.707031 L 43.75 490.707031 Z M 43.75 318.957031 " clip-rule="nonzero"/></clipPath><clipPath id="9ceecc5bc0"><path d="M 666 359 L 766 359 L 766 486 L 666 486 Z M 666 359 " clip-rule="nonzero"/></clipPath></defs><g clip-path="url(#e5ec4a4f22)"><path fill="#ffffff" d="M 171.445312 353.441406 C 162.171875 347.394531 155.492188 337.730469 153.398438 326.460938 C 152.953125 324.03125 152.695312 321.519531 152.695312 318.957031 L 123.125 318.957031 L 123.074219 437.480469 C 122.574219 450.75 111.65625 461.410156 98.253906 461.410156 C 94.097656 461.410156 90.167969 460.371094 86.726562 458.550781 C 78.816406 454.378906 73.394531 446.09375 73.394531 436.550781 C 73.394531 422.835938 84.539062 411.691406 98.253906 411.691406 C 100.816406 411.691406 103.261719 412.109375 105.59375 412.835938 L 105.59375 382.644531 C 103.191406 382.320312 100.75 382.121094 98.253906 382.121094 C 68.25 382.105469 43.835938 406.535156 43.835938 436.550781 C 43.835938 454.960938 53.039062 471.261719 67.078125 481.113281 C 75.917969 487.324219 86.671875 490.980469 98.265625 490.980469 C 128.28125 490.980469 152.695312 466.566406 152.695312 436.550781 L 152.695312 376.449219 C 164.289062 384.777344 178.503906 389.675781 193.847656 389.675781 L 193.847656 360.105469 C 185.585938 360.105469 177.894531 357.652344 171.445312 353.441406 Z M 171.445312 353.441406 " fill-opacity="1" fill-rule="nonzero"/></g><path fill="#ffffff" d="M 222.09375 360.242188 L 315.355469 360.242188 L 306.796875 386.925781 L 282.597656 386.925781 C 282.597656 386.925781 282.597656 485.554688 282.597656 485.554688 L 252.449219 485.554688 L 252.449219 386.925781 L 222.109375 386.976562 L 222.082031 360.253906 Z M 222.09375 360.242188 " fill-opacity="1" fill-rule="nonzero"/><path fill="#ffffff" d="M 468.132812 360.242188 L 563.550781 360.242188 L 554.996094 386.925781 L 528.691406 386.925781 C 528.691406 386.925781 528.691406 485.554688 528.691406 485.554688 L 498.5 485.554688 L 498.5 386.925781 L 468.160156 386.976562 L 468.132812 360.253906 Z M 468.132812 360.242188 " fill-opacity="1" fill-rule="nonzero"/><path fill="#ffffff" d="M 321.050781 400.109375 L 350.945312 400.109375 L 350.917969 485.570312 L 321.226562 485.570312 Z M 321.050781 400.109375 " fill-opacity="1" fill-rule="nonzero"/><path fill="#ffffff" d="M 362.808594 359.890625 L 392.675781 359.890625 L 392.675781 418.25 L 422.273438 389.203125 L 457.929688 389.203125 C 457.929688 389.203125 420.492188 425.539062 420.492188 425.539062 L 462.425781 485.554688 L 429.519531 485.554688 L 401.527344 443.933594 L 392.675781 452.542969 L 392.675781 485.554688 L 362.808594 485.554688 Z M 362.808594 359.890625 " fill-opacity="1" fill-rule="nonzero"/><g clip-path="url(#9ceecc5bc0)"><path fill="#ffffff" d="M 666.503906 359.890625 L 696.371094 359.890625 L 696.371094 418.25 L 725.96875 389.203125 L 761.625 389.203125 C 761.625 389.203125 724.183594 425.539062 724.183594 425.539062 L 766.117188 485.554688 L 733.214844 485.554688 L 705.222656 443.933594 L 696.371094 452.542969 L 696.371094 485.554688 L 666.503906 485.554688 Z M 666.503906 359.890625 " fill-opacity="1" fill-rule="nonzero"/></g><path fill="#ffffff" d="M 351.039062 375.289062 C 351.039062 376.277344 350.941406 377.257812 350.75 378.226562 C 350.558594 379.195312 350.273438 380.136719 349.894531 381.050781 C 349.515625 381.960938 349.050781 382.828125 348.503906 383.652344 C 347.953125 384.472656 347.332031 385.234375 346.632812 385.929688 C 345.933594 386.628906 345.171875 387.253906 344.351562 387.800781 C 343.53125 388.351562 342.664062 388.816406 341.75 389.191406 C 340.835938 389.570312 339.894531 389.855469 338.925781 390.050781 C 337.957031 390.242188 336.980469 390.339844 335.992188 390.339844 C 335.003906 390.339844 334.023438 390.242188 333.054688 390.050781 C 332.085938 389.855469 331.144531 389.570312 330.230469 389.191406 C 329.320312 388.816406 328.453125 388.351562 327.628906 387.800781 C 326.808594 387.253906 326.046875 386.628906 325.351562 385.929688 C 324.652344 385.234375 324.027344 384.472656 323.476562 383.652344 C 322.929688 382.828125 322.464844 381.960938 322.085938 381.050781 C 321.710938 380.136719 321.425781 379.195312 321.230469 378.226562 C 321.039062 377.257812 320.941406 376.277344 320.941406 375.289062 C 320.941406 374.300781 321.039062 373.324219 321.230469 372.355469 C 321.425781 371.386719 321.710938 370.445312 322.085938 369.53125 C 322.464844 368.617188 322.929688 367.75 323.476562 366.929688 C 324.027344 366.109375 324.652344 365.347656 325.351562 364.648438 C 326.046875 363.949219 326.808594 363.328125 327.628906 362.777344 C 328.453125 362.230469 329.320312 361.765625 330.230469 361.386719 C 331.144531 361.007812 332.085938 360.722656 333.054688 360.53125 C 334.023438 360.339844 335.003906 360.242188 335.992188 360.242188 C 336.980469 360.242188 337.957031 360.339844 338.925781 360.53125 C 339.894531 360.722656 340.835938 361.007812 341.75 361.386719 C 342.664062 361.765625 343.53125 362.230469 344.351562 362.777344 C 345.171875 363.328125 345.933594 363.949219 346.632812 364.648438 C 347.332031 365.347656 347.953125 366.109375 348.503906 366.929688 C 349.050781 367.75 349.515625 368.617188 349.894531 369.53125 C 350.273438 370.445312 350.558594 371.386719 350.75 372.355469 C 350.941406 373.324219 351.039062 374.300781 351.039062 375.289062 Z M 351.039062 375.289062 " fill-opacity="1" fill-rule="nonzero"/><path fill="#ffffff" d="M 603.203125 383.253906 C 574.957031 383.253906 552.054688 406.15625 552.054688 434.402344 C 552.054688 462.652344 574.957031 485.554688 603.203125 485.554688 C 631.453125 485.554688 654.355469 462.652344 654.355469 434.402344 C 654.355469 406.15625 631.453125 383.253906 603.203125 383.253906 Z M 603.203125 459.277344 C 589.464844 459.277344 578.332031 448.144531 578.332031 434.402344 C 578.332031 420.664062 589.464844 409.53125 603.203125 409.53125 C 616.945312 409.53125 628.078125 420.664062 628.078125 434.402344 C 628.078125 448.144531 616.945312 459.277344 603.203125 459.277344 Z M 603.203125 459.277344 " fill-opacity="1" fill-rule="nonzero"/></svg>